# Blender 3.6.4
# www.blender.org
mtllib racetrack.mtl
o BezierCircle
v 12.246759 0.262251 9.986435
v 12.603764 0.257168 11.613158
v 11.551662 0.237433 13.461031
v 9.384080 0.206254 15.395780
v 6.394637 0.166838 17.283134
v 2.876958 0.122394 18.988821
v -0.875337 0.076130 20.378569
v -4.568625 0.031255 21.318106
v -7.909283 -0.009025 21.673159
v -10.603691 -0.041500 21.309456
v -12.358222 -0.062964 20.092728
v -12.879260 -0.070207 17.888699
v -11.873173 -0.060021 14.563114
v -10.377525 -0.044174 10.962688
v -9.547924 -0.035593 7.960562
v -9.267834 -0.032816 5.462042
v -9.420719 -0.034378 3.372438
v -9.890045 -0.038816 1.597058
v -10.559278 -0.044665 0.041211
v -11.311883 -0.050461 -1.389796
v -12.031324 -0.054742 -2.790654
v -12.601068 -0.056041 -4.256055
v -12.904579 -0.052897 -5.880690
v -12.825322 -0.043844 -7.759251
v -12.246759 -0.027419 -9.986435
v -11.030265 -0.007574 -12.251348
v -9.207325 0.011227 -14.178952
v -6.916595 0.029679 -15.767706
v -4.296725 0.048479 -17.016060
v -1.486362 0.068322 -17.922472
v 1.375838 0.089903 -18.485394
v 4.151225 0.113918 -18.703281
v 6.701148 0.141063 -18.574589
v 8.886955 0.172034 -18.097771
v 10.569998 0.207525 -17.271286
v 11.611620 0.248233 -16.093582
v 11.873173 0.294853 -14.563114
v 11.645162 0.335811 -12.757821
v 11.336146 0.360695 -10.782017
v 10.984565 0.371946 -8.673737
v 10.628851 0.372003 -6.471015
v 10.307444 0.363306 -4.211888
v 10.058776 0.348294 -1.934390
v 9.921286 0.329408 0.323445
v 9.933409 0.309087 2.523581
v 10.133581 0.289772 4.627983
v 10.560241 0.273900 6.598616
v 11.251821 0.263913 8.397446
v 19.505123 0.237859 15.904621
v 20.070883 0.229805 18.482565
v 18.403574 0.198529 21.410973
v 14.968509 0.149118 24.477055
v 10.231004 0.086654 27.468031
v 4.656376 0.016222 30.171110
v -1.290054 -0.057094 32.373508
v -7.142972 -0.128210 33.862434
v -12.437065 -0.192043 34.425098
v -16.707010 -0.243509 33.848728
v -19.487499 -0.277523 31.920521
v -20.313211 -0.289001 28.427698
v -18.718821 -0.272859 23.157494
v -16.348602 -0.247745 17.451736
v -15.033895 -0.234148 12.694130
v -14.590023 -0.229747 8.734612
v -14.832307 -0.232222 5.423122
v -15.576070 -0.239255 2.609596
v -16.636635 -0.248524 0.143974
v -17.829319 -0.257710 -2.123807
v -18.969454 -0.264493 -4.343810
v -19.872351 -0.266552 -6.666096
v -20.353338 -0.261569 -9.240729
v -20.227737 -0.247223 -12.217770
v -19.310863 -0.221194 -15.747288
v -17.383030 -0.189745 -19.336601
v -14.494136 -0.159950 -22.391365
v -10.863913 -0.130707 -24.909132
v -6.712084 -0.100914 -26.887453
v -2.258378 -0.069469 -28.323885
v 2.277481 -0.035268 -29.215973
v 6.675761 0.002790 -29.561272
v 10.716739 0.045808 -29.357325
v 14.180688 0.094888 -28.601690
v 16.847881 0.151133 -27.291922
v 18.498585 0.215644 -25.425560
v 18.913080 0.289525 -23.000160
v 18.551743 0.354433 -20.139231
v 18.062033 0.393869 -17.008083
v 17.504864 0.411698 -13.666995
v 16.941151 0.411789 -10.176245
v 16.431801 0.398006 -6.596103
v 16.037727 0.374217 -2.986849
v 15.819839 0.344287 0.591245
v 15.839052 0.312084 4.077898
v 16.156277 0.281473 7.412841
v 16.832422 0.256321 10.535792
v 17.928400 0.240494 13.386477
vn -0.0315 0.9995 0.0078
vn -0.0133 0.9999 0.0096
vn -0.0296 0.9992 -0.0254
vn -0.0296 0.9996 0.0036
vn -0.0175 0.9998 0.0076
vn -0.0311 0.9992 -0.0266
vn -0.0276 0.9996 0.0002
vn -0.0255 0.9997 0.0027
vn -0.0194 0.9997 -0.0156
vn -0.0240 0.9997 -0.0042
vn -0.0439 0.9990 -0.0102
vn -0.0117 0.9999 -0.0073
vn -0.0192 0.9998 -0.0084
vn -0.0533 0.9984 -0.0178
vn -0.0070 1.0000 -0.0012
vn -0.0156 0.9998 -0.0108
vn -0.0442 0.9990 -0.0094
vn -0.0044 1.0000 0.0032
vn 0.0010 1.0000 0.0029
vn -0.0129 0.9998 -0.0120
vn -0.0390 0.9992 -0.0033
vn -0.0032 1.0000 0.0062
vn -0.0040 1.0000 0.0084
vn -0.0111 0.9999 -0.0124
vn -0.0358 0.9994 0.0019
vn -0.0029 1.0000 0.0082
vn -0.0057 0.9999 0.0098
vn -0.0100 0.9999 -0.0125
vn -0.0341 0.9994 0.0065
vn -0.0029 1.0000 0.0093
vn -0.0066 0.9999 0.0104
vn -0.0096 0.9999 -0.0125
vn -0.0333 0.9994 0.0106
vn -0.0030 1.0000 0.0095
vn -0.0075 0.9999 0.0107
vn -0.0100 0.9999 -0.0126
vn -0.0333 0.9994 0.0135
vn -0.0026 1.0000 0.0086
vn -0.0083 0.9999 0.0108
vn -0.0113 0.9999 -0.0130
vn -0.0334 0.9993 0.0141
vn -0.0009 1.0000 0.0059
vn -0.0094 0.9999 0.0108
vn -0.0140 0.9998 -0.0144
vn -0.0329 0.9994 0.0119
vn 0.0051 1.0000 -0.0022
vn -0.0109 0.9999 0.0105
vn -0.0191 0.9997 -0.0176
s 0
f 22//1 23//1 71//1
f 9//2 10//2 58//2
f 36//3 37//3 85//3
f 23//4 24//4 72//4
f 11//5 59//5 58//5
f 37//6 38//6 86//6
f 24//7 25//7 73//7
f 12//8 60//8 59//8
f 38//9 39//9 87//9
f 25//10 26//10 74//10
f 13//11 61//11 60//11
f 39//12 40//12 88//12
f 27//13 75//13 74//13
f 14//14 62//14 61//14
f 40//15 41//15 89//15
f 28//16 76//16 75//16
f 15//17 63//17 62//17
f 42//18 90//18 89//18
f 2//19 50//19 49//19
f 29//20 77//20 76//20
f 16//21 64//21 63//21
f 43//22 91//22 90//22
f 3//23 51//23 50//23
f 30//24 78//24 77//24
f 17//25 65//25 64//25
f 44//26 92//26 91//26
f 3//27 4//27 52//27
f 31//28 79//28 78//28
f 18//29 66//29 65//29
f 45//30 93//30 92//30
f 4//31 5//31 53//31
f 32//32 80//32 79//32
f 18//33 19//33 67//33
f 46//34 94//34 93//34
f 5//35 6//35 54//35
f 33//36 81//36 80//36
f 19//37 20//37 68//37
f 47//38 95//38 94//38
f 6//39 7//39 55//39
f 33//40 34//40 82//40
f 20//41 21//41 69//41
f 48//42 96//42 95//42
f 7//43 8//43 56//43
f 34//44 35//44 83//44
f 21//45 22//45 70//45
f 1//46 49//46 96//46
f 8//47 9//47 57//47
f 35//48 36//48 84//48
f 22//1 71//1 70//1
f 9//2 58//2 57//2
f 36//3 85//3 84//3
f 23//4 72//4 71//4
f 11//5 58//5 10//5
f 37//6 86//6 85//6
f 24//7 73//7 72//7
f 12//8 59//8 11//8
f 38//9 87//9 86//9
f 25//10 74//10 73//10
f 13//11 60//11 12//11
f 39//12 88//12 87//12
f 27//13 74//13 26//13
f 14//14 61//14 13//14
f 40//15 89//15 88//15
f 28//16 75//16 27//16
f 15//17 62//17 14//17
f 42//18 89//18 41//18
f 2//19 49//19 1//19
f 29//20 76//20 28//20
f 16//21 63//21 15//21
f 43//22 90//22 42//22
f 3//23 50//23 2//23
f 30//24 77//24 29//24
f 17//25 64//25 16//25
f 44//26 91//26 43//26
f 3//27 52//27 51//27
f 31//28 78//28 30//28
f 18//29 65//29 17//29
f 45//30 92//30 44//30
f 4//31 53//31 52//31
f 32//32 79//32 31//32
f 18//33 67//33 66//33
f 46//34 93//34 45//34
f 5//35 54//35 53//35
f 33//36 80//36 32//36
f 19//37 68//37 67//37
f 47//38 94//38 46//38
f 6//39 55//39 54//39
f 33//40 82//40 81//40
f 20//41 69//41 68//41
f 48//42 95//42 47//42
f 7//43 56//43 55//43
f 34//44 83//44 82//44
f 21//45 70//45 69//45
f 1//46 96//46 48//46
f 8//47 57//47 56//47
f 35//48 84//48 83//48
